<svg xmlns="http://www.w3.org/2000/svg" width="1200" height="200" viewBox="0 0 1200 200">
  <defs>
    <radialGradient id="bodyGrad" cx="50%" cy="35%" r="65%">
      <stop offset="0%" stop-color="#F4DDB0"/>
      <stop offset="55%" stop-color="#E8C79A"/>
      <stop offset="100%" stop-color="#C99A5E"/>
    </radialGradient>
    <radialGradient id="headGrad" cx="40%" cy="30%" r="70%">
      <stop offset="0%" stop-color="#F4DDB0"/>
      <stop offset="60%" stop-color="#E8C79A"/>
      <stop offset="100%" stop-color="#C99A5E"/>
    </radialGradient>
    <linearGradient id="bellyGrad" x1="0" y1="0" x2="0" y2="1">
      <stop offset="0%" stop-color="#FBEDD0"/>
      <stop offset="100%" stop-color="#E8D9B0"/>
    </linearGradient>
    <linearGradient id="earGrad" x1="0" y1="0" x2="0" y2="1">
      <stop offset="0%" stop-color="#7A4A28"/>
      <stop offset="100%" stop-color="#9A6238"/>
    </linearGradient>
    <radialGradient id="eyeGrad" cx="40%" cy="35%" r="65%">
      <stop offset="0%" stop-color="#3A2A1A"/>
      <stop offset="100%" stop-color="#1A1208"/>
    </radialGradient>
    <filter id="soft" x="-20%" y="-20%" width="140%" height="140%">
      <feGaussianBlur stdDeviation="1.2"/>
    </filter>
  </defs><g transform="translate(0,0)"><g>
  <ellipse cx="100" cy="190" rx="46" ry="6" fill="rgba(0,0,0,0.22)"/>
  
  <g transform="translate(72,138) rotate(-30)">
    <rect x="-20" y="-7" width="36" height="14" rx="7" fill="url(#bodyGrad)"/>
    <circle cx="18" cy="0" r="9" fill="#F4DDB0"/>
    <circle cx="18" cy="0" r="9" fill="#E8C79A" opacity="0.5"/>
  </g>
  <!-- body: slightly egg-shaped (taller than wide) so lower body doesn't read as a ball -->
  <ellipse cx="100" cy="142" rx="60" ry="64" fill="url(#bodyGrad)"/>
  <!-- chest/belly patch, narrower than body so legs show separation -->
  <ellipse cx="100" cy="150" rx="44" ry="44" fill="url(#bellyGrad)"/>
  <!-- subtle waist hint: a darker crescent where body meets legs -->
  <path d="M58,188 Q100,204 142,188" stroke="#C99A5E" stroke-width="1.2" fill="none" opacity="0.4"/>
  
  <g fill="#D4A775" opacity="0.55">
    <circle cx="70" cy="108" r="3"/>
    <circle cx="78" cy="106" r="2.5"/>
    <circle cx="122" cy="106" r="2.5"/>
    <circle cx="130" cy="108" r="3"/>
    <circle cx="84" cy="138" r="2.5"/>
    <circle cx="116" cy="138" r="2.5"/>
  </g>
  
  <g>
    <!-- back legs (slightly behind, darker) -->
    <rect x="80" y="150" width="12" height="28" rx="6" fill="#C99A5E"/>
    <rect x="108" y="150" width="12" height="28" rx="6" fill="#C99A5E"/>
    <!-- front legs -->
    <rect x="88" y="152" width="12" height="30" rx="6" fill="#E8C79A"/>
    <rect x="100" y="152" width="12" height="30" rx="6" fill="#E8C79A"/>
    <!-- paws -->
    <ellipse cx="94" cy="184" rx="9" ry="6" fill="#C99A5E"/>
    <ellipse cx="106" cy="184" rx="9" ry="6" fill="#C99A5E"/>
    <!-- toe beans -->
    <circle cx="90" cy="184" r="1.6" fill="#A87A3E"/>
    <circle cx="94" cy="186" r="1.6" fill="#A87A3E"/>
    <circle cx="98" cy="184" r="1.6" fill="#A87A3E"/>
    <circle cx="102" cy="184" r="1.6" fill="#A87A3E"/>
    <circle cx="106" cy="186" r="1.6" fill="#A87A3E"/>
    <circle cx="110" cy="184" r="1.6" fill="#A87A3E"/>
  </g>
  
  <g>
    <ellipse cx="62" cy="68" rx="14" ry="26" fill="url(#earGrad)" transform="rotate(-18 62 68)"/>
    <ellipse cx="138" cy="68" rx="14" ry="26" fill="url(#earGrad)" transform="rotate(18 138 68)"/>
    <ellipse cx="62" cy="72" rx="7" ry="15" fill="#B0764A" transform="rotate(-18 62 72)"/>
    <ellipse cx="138" cy="72" rx="7" ry="15" fill="#B0764A" transform="rotate(18 138 72)"/>
  </g>
  
  <g>
    <circle cx="100" cy="88" r="34" fill="url(#headGrad)"/>
    <ellipse cx="88" cy="76" rx="14" ry="9" fill="#F4DDB0" opacity="0.4"/>
    <ellipse cx="100" cy="100" rx="22" ry="17" fill="url(#bellyGrad)"/>
  </g>
  
  <g>
    <ellipse cx="86" cy="84" rx="5.5" ry="6" fill="url(#eyeGrad)"/>
    <ellipse cx="114" cy="84" rx="5.5" ry="6" fill="url(#eyeGrad)"/>
    <circle cx="87.5" cy="82.2" r="1.8" fill="#FFFFFF"/>
    <circle cx="115.5" cy="82.2" r="1.8" fill="#FFFFFF"/>
    <circle cx="84.5" cy="85.5" r="0.8" fill="#fff" opacity="0.6"/>
    <circle cx="112.5" cy="85.5" r="0.8" fill="#fff" opacity="0.6"/>
  </g>
  
  <g>
    <ellipse cx="100" cy="96" rx="7" ry="5" fill="#2A1C14"/>
    <ellipse cx="98.5" cy="94.5" rx="2.2" ry="1.5" fill="#6A4A36" opacity="0.7"/>
    <ellipse cx="101.5" cy="97.5" rx="1" ry="0.6" fill="#fff" opacity="0.4"/>
  </g>
  <path d="M88,100 Q100,106 112,100" stroke="#5A3A26" stroke-width="2.2" fill="none" stroke-linecap="round"/>
  <path d="M94,102 Q94,111 100,113 Q106,111 106,102 Z" fill="#F08090"/><path d="M100,104 L100,111" stroke="#D86070" stroke-width="0.8" fill="none"/>
  
  <g opacity="0.75">
    <ellipse cx="70" cy="102" rx="5" ry="3.5" fill="#FFB0B0"/>
    <ellipse cx="130" cy="102" rx="5" ry="3.5" fill="#FFB0B0"/>
  </g>
  
</g></g><g transform="translate(200,0)"><g>
  <ellipse cx="100" cy="190" rx="46" ry="6" fill="rgba(0,0,0,0.22)"/>
  
  <g transform="translate(72,138) rotate(-30)">
    <rect x="-20" y="-7" width="36" height="14" rx="7" fill="url(#bodyGrad)"/>
    <circle cx="18" cy="0" r="9" fill="#F4DDB0"/>
    <circle cx="18" cy="0" r="9" fill="#E8C79A" opacity="0.5"/>
  </g>
  <!-- body: slightly egg-shaped (taller than wide) so lower body doesn't read as a ball -->
  <ellipse cx="100" cy="142" rx="60" ry="64" fill="url(#bodyGrad)"/>
  <!-- chest/belly patch, narrower than body so legs show separation -->
  <ellipse cx="100" cy="150" rx="44" ry="44" fill="url(#bellyGrad)"/>
  <!-- subtle waist hint: a darker crescent where body meets legs -->
  <path d="M58,188 Q100,204 142,188" stroke="#C99A5E" stroke-width="1.2" fill="none" opacity="0.4"/>
  
  <g fill="#D4A775" opacity="0.55">
    <circle cx="70" cy="108" r="3"/>
    <circle cx="78" cy="106" r="2.5"/>
    <circle cx="122" cy="106" r="2.5"/>
    <circle cx="130" cy="108" r="3"/>
    <circle cx="84" cy="138" r="2.5"/>
    <circle cx="116" cy="138" r="2.5"/>
  </g>
  
  <g>
    <!-- back legs (slightly behind, darker) -->
    <rect x="80" y="150" width="12" height="28" rx="6" fill="#C99A5E"/>
    <rect x="108" y="150" width="12" height="28" rx="6" fill="#C99A5E"/>
    <!-- front legs -->
    <rect x="88" y="152" width="12" height="30" rx="6" fill="#E8C79A"/>
    <rect x="100" y="152" width="12" height="30" rx="6" fill="#E8C79A"/>
    <!-- paws -->
    <ellipse cx="94" cy="184" rx="9" ry="6" fill="#C99A5E"/>
    <ellipse cx="106" cy="184" rx="9" ry="6" fill="#C99A5E"/>
    <!-- toe beans -->
    <circle cx="90" cy="184" r="1.6" fill="#A87A3E"/>
    <circle cx="94" cy="186" r="1.6" fill="#A87A3E"/>
    <circle cx="98" cy="184" r="1.6" fill="#A87A3E"/>
    <circle cx="102" cy="184" r="1.6" fill="#A87A3E"/>
    <circle cx="106" cy="186" r="1.6" fill="#A87A3E"/>
    <circle cx="110" cy="184" r="1.6" fill="#A87A3E"/>
  </g>
  
  <g>
    <ellipse cx="62" cy="68" rx="14" ry="26" fill="url(#earGrad)" transform="rotate(-8 62 68)"/>
    <ellipse cx="138" cy="68" rx="14" ry="26" fill="url(#earGrad)" transform="rotate(8 138 68)"/>
    <ellipse cx="62" cy="72" rx="7" ry="15" fill="#B0764A" transform="rotate(-8 62 72)"/>
    <ellipse cx="138" cy="72" rx="7" ry="15" fill="#B0764A" transform="rotate(8 138 72)"/>
  </g>
  
  <g>
    <circle cx="100" cy="88" r="34" fill="url(#headGrad)"/>
    <ellipse cx="88" cy="76" rx="14" ry="9" fill="#F4DDB0" opacity="0.4"/>
    <ellipse cx="100" cy="100" rx="22" ry="17" fill="url(#bellyGrad)"/>
  </g>
  
  <g stroke="#1A1208" stroke-width="2.6" fill="none" stroke-linecap="round">
    <path d="M80,87 Q86,80 92,87"/>
    <path d="M108,87 Q114,80 120,87"/>
  </g>
  
  <g>
    <ellipse cx="100" cy="96" rx="7" ry="5" fill="#2A1C14"/>
    <ellipse cx="98.5" cy="94.5" rx="2.2" ry="1.5" fill="#6A4A36" opacity="0.7"/>
    <ellipse cx="101.5" cy="97.5" rx="1" ry="0.6" fill="#fff" opacity="0.4"/>
  </g>
  <path d="M82,98 Q100,111 118,98" stroke="#5A3A26" stroke-width="2.2" fill="none" stroke-linecap="round"/>
  <path d="M94,104 Q94,113 100,115 Q106,113 106,104 Z" fill="#F08090"/><path d="M100,106 L100,113" stroke="#D86070" stroke-width="0.8" fill="none"/>
  
  <g opacity="0.75">
    <ellipse cx="70" cy="102" rx="5" ry="3.5" fill="#FFB0B0"/>
    <ellipse cx="130" cy="102" rx="5" ry="3.5" fill="#FFB0B0"/>
  </g>
  
  <g opacity="0.75">
    <ellipse cx="70" cy="102" rx="5" ry="3.5" fill="#FFB0B0"/>
    <ellipse cx="130" cy="102" rx="5" ry="3.5" fill="#FFB0B0"/>
  </g><circle cx="100" cy="58" r="2" fill="#FFD700" opacity="0.7"/>
</g></g><g transform="translate(400,0)"><g>
  <ellipse cx="100" cy="190" rx="46" ry="6" fill="rgba(0,0,0,0.22)"/>
  
  <g transform="translate(72,138) rotate(-30)">
    <rect x="-20" y="-7" width="36" height="14" rx="7" fill="url(#bodyGrad)"/>
    <circle cx="18" cy="0" r="9" fill="#F4DDB0"/>
    <circle cx="18" cy="0" r="9" fill="#E8C79A" opacity="0.5"/>
  </g>
  <!-- body: slightly egg-shaped (taller than wide) so lower body doesn't read as a ball -->
  <ellipse cx="100" cy="142" rx="60" ry="64" fill="url(#bodyGrad)"/>
  <!-- chest/belly patch, narrower than body so legs show separation -->
  <ellipse cx="100" cy="150" rx="44" ry="44" fill="url(#bellyGrad)"/>
  <!-- subtle waist hint: a darker crescent where body meets legs -->
  <path d="M58,188 Q100,204 142,188" stroke="#C99A5E" stroke-width="1.2" fill="none" opacity="0.4"/>
  
  <g fill="#D4A775" opacity="0.55">
    <circle cx="70" cy="108" r="3"/>
    <circle cx="78" cy="106" r="2.5"/>
    <circle cx="122" cy="106" r="2.5"/>
    <circle cx="130" cy="108" r="3"/>
    <circle cx="84" cy="138" r="2.5"/>
    <circle cx="116" cy="138" r="2.5"/>
  </g>
  
  <g>
    <!-- back legs (slightly behind, darker) -->
    <rect x="80" y="150" width="12" height="28" rx="6" fill="#C99A5E"/>
    <rect x="108" y="150" width="12" height="28" rx="6" fill="#C99A5E"/>
    <!-- front legs -->
    <rect x="88" y="152" width="12" height="30" rx="6" fill="#E8C79A"/>
    <rect x="100" y="152" width="12" height="30" rx="6" fill="#E8C79A"/>
    <!-- paws -->
    <ellipse cx="94" cy="184" rx="9" ry="6" fill="#C99A5E"/>
    <ellipse cx="106" cy="184" rx="9" ry="6" fill="#C99A5E"/>
    <!-- toe beans -->
    <circle cx="90" cy="184" r="1.6" fill="#A87A3E"/>
    <circle cx="94" cy="186" r="1.6" fill="#A87A3E"/>
    <circle cx="98" cy="184" r="1.6" fill="#A87A3E"/>
    <circle cx="102" cy="184" r="1.6" fill="#A87A3E"/>
    <circle cx="106" cy="186" r="1.6" fill="#A87A3E"/>
    <circle cx="110" cy="184" r="1.6" fill="#A87A3E"/>
  </g>
  
  <g>
    <ellipse cx="62" cy="80" rx="14" ry="26" fill="url(#earGrad)" transform="rotate(-8 62 80)"/>
    <ellipse cx="138" cy="80" rx="14" ry="26" fill="url(#earGrad)" transform="rotate(8 138 80)"/>
    <ellipse cx="62" cy="84" rx="7" ry="15" fill="#B0764A" transform="rotate(-8 62 84)"/>
    <ellipse cx="138" cy="84" rx="7" ry="15" fill="#B0764A" transform="rotate(8 138 84)"/>
  </g>
  
  <g>
    <circle cx="100" cy="92" r="34" fill="url(#headGrad)"/>
    <ellipse cx="88" cy="80" rx="14" ry="9" fill="#F4DDB0" opacity="0.4"/>
    <ellipse cx="100" cy="104" rx="22" ry="17" fill="url(#bellyGrad)"/>
  </g>
  
  <g>
    <ellipse cx="86" cy="87" rx="4.5" ry="4" fill="url(#eyeGrad)"/>
    <ellipse cx="114" cy="87" rx="4.5" ry="4" fill="url(#eyeGrad)"/>
    <circle cx="87" cy="85.5" r="1.3" fill="#fff"/>
    <circle cx="115" cy="85.5" r="1.3" fill="#fff"/>
    <path d="M83,82 Q86,80 89,82" stroke="#1A1208" stroke-width="1.5" fill="none" stroke-linecap="round"/>
    <path d="M111,82 Q114,80 117,82" stroke="#1A1208" stroke-width="1.5" fill="none" stroke-linecap="round"/>
  </g>
  
  <g>
    <ellipse cx="100" cy="100" rx="7" ry="5" fill="#2A1C14"/>
    <ellipse cx="98.5" cy="98.5" rx="2.2" ry="1.5" fill="#6A4A36" opacity="0.7"/>
    <ellipse cx="101.5" cy="101.5" rx="1" ry="0.6" fill="#fff" opacity="0.4"/>
  </g>
  <path d="M88,107 Q100,102 112,107" stroke="#5A3A26" stroke-width="2.2" fill="none" stroke-linecap="round"/>
  
  
  <g opacity="0.75">
    <ellipse cx="70" cy="106" rx="5" ry="3.5" fill="#FFB0B0"/>
    <ellipse cx="130" cy="106" rx="5" ry="3.5" fill="#FFB0B0"/>
  </g>
  <path d="M86,98 Q83,106 86,110 Q89,106 86,98 Z" fill="#7EC8FF" opacity="0.85"/>
</g></g><g transform="translate(600,0)"><g>
  <ellipse cx="100" cy="190" rx="46" ry="6" fill="rgba(0,0,0,0.22)"/>
  
  <g transform="translate(72,138) rotate(-30)">
    <rect x="-20" y="-7" width="36" height="14" rx="7" fill="url(#bodyGrad)"/>
    <circle cx="18" cy="0" r="9" fill="#F4DDB0"/>
    <circle cx="18" cy="0" r="9" fill="#E8C79A" opacity="0.5"/>
  </g>
  <!-- body: slightly egg-shaped (taller than wide) so lower body doesn't read as a ball -->
  <ellipse cx="100" cy="142" rx="60" ry="64" fill="url(#bodyGrad)"/>
  <!-- chest/belly patch, narrower than body so legs show separation -->
  <ellipse cx="100" cy="150" rx="44" ry="44" fill="url(#bellyGrad)"/>
  <!-- subtle waist hint: a darker crescent where body meets legs -->
  <path d="M58,188 Q100,204 142,188" stroke="#C99A5E" stroke-width="1.2" fill="none" opacity="0.4"/>
  
  <g fill="#D4A775" opacity="0.55">
    <circle cx="70" cy="108" r="3"/>
    <circle cx="78" cy="106" r="2.5"/>
    <circle cx="122" cy="106" r="2.5"/>
    <circle cx="130" cy="108" r="3"/>
    <circle cx="84" cy="138" r="2.5"/>
    <circle cx="116" cy="138" r="2.5"/>
  </g>
  
  <g>
    <!-- back legs (slightly behind, darker) -->
    <rect x="80" y="150" width="12" height="28" rx="6" fill="#C99A5E"/>
    <rect x="108" y="150" width="12" height="28" rx="6" fill="#C99A5E"/>
    <!-- front legs -->
    <rect x="88" y="152" width="12" height="30" rx="6" fill="#E8C79A"/>
    <rect x="100" y="152" width="12" height="30" rx="6" fill="#E8C79A"/>
    <!-- paws -->
    <ellipse cx="94" cy="184" rx="9" ry="6" fill="#C99A5E"/>
    <ellipse cx="106" cy="184" rx="9" ry="6" fill="#C99A5E"/>
    <!-- toe beans -->
    <circle cx="90" cy="184" r="1.6" fill="#A87A3E"/>
    <circle cx="94" cy="186" r="1.6" fill="#A87A3E"/>
    <circle cx="98" cy="184" r="1.6" fill="#A87A3E"/>
    <circle cx="102" cy="184" r="1.6" fill="#A87A3E"/>
    <circle cx="106" cy="186" r="1.6" fill="#A87A3E"/>
    <circle cx="110" cy="184" r="1.6" fill="#A87A3E"/>
  </g>
  
  <g>
    <ellipse cx="62" cy="68" rx="14" ry="26" fill="url(#earGrad)" transform="rotate(-18 62 68)"/>
    <ellipse cx="138" cy="68" rx="14" ry="26" fill="url(#earGrad)" transform="rotate(18 138 68)"/>
    <ellipse cx="62" cy="72" rx="7" ry="15" fill="#B0764A" transform="rotate(-18 62 72)"/>
    <ellipse cx="138" cy="72" rx="7" ry="15" fill="#B0764A" transform="rotate(18 138 72)"/>
  </g>
  
  <g>
    <circle cx="100" cy="88" r="34" fill="url(#headGrad)"/>
    <ellipse cx="88" cy="76" rx="14" ry="9" fill="#F4DDB0" opacity="0.4"/>
    <ellipse cx="100" cy="100" rx="22" ry="17" fill="url(#bellyGrad)"/>
  </g>
  
  <g stroke="#1A1208" stroke-width="2.2" fill="none" stroke-linecap="round">
    <path d="M81,84 Q86,87 91,84"/>
    <path d="M109,84 Q114,87 119,84"/>
  </g>
  
  <g>
    <ellipse cx="100" cy="96" rx="7" ry="5" fill="#2A1C14"/>
    <ellipse cx="98.5" cy="94.5" rx="2.2" ry="1.5" fill="#6A4A36" opacity="0.7"/>
    <ellipse cx="101.5" cy="97.5" rx="1" ry="0.6" fill="#fff" opacity="0.4"/>
  </g>
  <ellipse cx="100" cy="102" rx="8" ry="5" fill="#5A3A26"/>
  <path d="M94,104 Q94,113 100,115 Q106,113 106,104 Z" fill="#F08090"/><path d="M100,106 L100,113" stroke="#D86070" stroke-width="0.8" fill="none"/>
  
  <g opacity="0.75">
    <ellipse cx="70" cy="102" rx="5" ry="3.5" fill="#FFB0B0"/>
    <ellipse cx="130" cy="102" rx="5" ry="3.5" fill="#FFB0B0"/>
  </g>
  <circle cx="100" cy="110" r="2.5" fill="#8A5A32" opacity="0.4"/><circle cx="105" cy="112" r="1.5" fill="#8A5A32" opacity="0.4"/>
</g></g><g transform="translate(800,0)"><g>
  <ellipse cx="100" cy="190" rx="46" ry="6" fill="rgba(0,0,0,0.22)"/>
  
  <g transform="translate(72,138) rotate(-30)">
    <rect x="-20" y="-7" width="36" height="14" rx="7" fill="url(#bodyGrad)"/>
    <circle cx="18" cy="0" r="9" fill="#F4DDB0"/>
    <circle cx="18" cy="0" r="9" fill="#E8C79A" opacity="0.5"/>
  </g>
  <!-- body: slightly egg-shaped (taller than wide) so lower body doesn't read as a ball -->
  <ellipse cx="100" cy="142" rx="60" ry="64" fill="url(#bodyGrad)"/>
  <!-- chest/belly patch, narrower than body so legs show separation -->
  <ellipse cx="100" cy="150" rx="44" ry="44" fill="url(#bellyGrad)"/>
  <!-- subtle waist hint: a darker crescent where body meets legs -->
  <path d="M58,188 Q100,204 142,188" stroke="#C99A5E" stroke-width="1.2" fill="none" opacity="0.4"/>
  
  <g fill="#D4A775" opacity="0.55">
    <circle cx="70" cy="108" r="3"/>
    <circle cx="78" cy="106" r="2.5"/>
    <circle cx="122" cy="106" r="2.5"/>
    <circle cx="130" cy="108" r="3"/>
    <circle cx="84" cy="138" r="2.5"/>
    <circle cx="116" cy="138" r="2.5"/>
  </g>
  
  <g>
    <!-- back legs (slightly behind, darker) -->
    <rect x="80" y="150" width="12" height="28" rx="6" fill="#C99A5E"/>
    <rect x="108" y="150" width="12" height="28" rx="6" fill="#C99A5E"/>
    <!-- front legs -->
    <rect x="88" y="152" width="12" height="30" rx="6" fill="#E8C79A"/>
    <rect x="100" y="152" width="12" height="30" rx="6" fill="#E8C79A"/>
    <!-- paws -->
    <ellipse cx="94" cy="184" rx="9" ry="6" fill="#C99A5E"/>
    <ellipse cx="106" cy="184" rx="9" ry="6" fill="#C99A5E"/>
    <!-- toe beans -->
    <circle cx="90" cy="184" r="1.6" fill="#A87A3E"/>
    <circle cx="94" cy="186" r="1.6" fill="#A87A3E"/>
    <circle cx="98" cy="184" r="1.6" fill="#A87A3E"/>
    <circle cx="102" cy="184" r="1.6" fill="#A87A3E"/>
    <circle cx="106" cy="186" r="1.6" fill="#A87A3E"/>
    <circle cx="110" cy="184" r="1.6" fill="#A87A3E"/>
  </g>
  
  <g>
    <ellipse cx="62" cy="68" rx="14" ry="26" fill="url(#earGrad)" transform="rotate(-18 62 68)"/>
    <ellipse cx="138" cy="68" rx="14" ry="26" fill="url(#earGrad)" transform="rotate(18 138 68)"/>
    <ellipse cx="62" cy="72" rx="7" ry="15" fill="#B0764A" transform="rotate(-18 62 72)"/>
    <ellipse cx="138" cy="72" rx="7" ry="15" fill="#B0764A" transform="rotate(18 138 72)"/>
  </g>
  
  <g>
    <circle cx="100" cy="88" r="34" fill="url(#headGrad)"/>
    <ellipse cx="88" cy="76" rx="14" ry="9" fill="#F4DDB0" opacity="0.4"/>
    <ellipse cx="100" cy="100" rx="22" ry="17" fill="url(#bellyGrad)"/>
  </g>
  
  <g stroke="#1A1208" stroke-width="2.4" fill="none" stroke-linecap="round">
    <path d="M80,87 Q86,84 92,87"/>
    <path d="M108,87 Q114,84 120,87"/>
  </g>
  
  <g>
    <ellipse cx="100" cy="96" rx="7" ry="5" fill="#2A1C14"/>
    <ellipse cx="98.5" cy="94.5" rx="2.2" ry="1.5" fill="#6A4A36" opacity="0.7"/>
    <ellipse cx="101.5" cy="97.5" rx="1" ry="0.6" fill="#fff" opacity="0.4"/>
  </g>
  <path d="M88,102 Q100,108 112,102" stroke="#5A3A26" stroke-width="2.2" fill="none" stroke-linecap="round"/>
  
  
  <g opacity="0.75">
    <ellipse cx="70" cy="102" rx="5" ry="3.5" fill="#FFB0B0"/>
    <ellipse cx="130" cy="102" rx="5" ry="3.5" fill="#FFB0B0"/>
  </g>
  <text x="138" y="56" font-size="16" fill="#5a6a7a" font-family="sans-serif" font-weight="700">z</text><text x="150" y="44" font-size="22" fill="#5a6a7a" font-family="sans-serif" font-weight="700">z</text><text x="164" y="30" font-size="28" fill="#5a6a7a" font-family="sans-serif" font-weight="700">z</text>
</g></g><g transform="translate(1000,0)"><g>
  <ellipse cx="100" cy="190" rx="46" ry="6" fill="rgba(0,0,0,0.22)"/>
  
  <g transform="translate(72,138) rotate(-30)">
    <rect x="-20" y="-7" width="36" height="14" rx="7" fill="url(#bodyGrad)"/>
    <circle cx="18" cy="0" r="9" fill="#F4DDB0"/>
    <circle cx="18" cy="0" r="9" fill="#E8C79A" opacity="0.5"/>
  </g>
  <!-- body: slightly egg-shaped (taller than wide) so lower body doesn't read as a ball -->
  <ellipse cx="100" cy="142" rx="54" ry="70" fill="url(#bodyGrad)"/>
  <!-- chest/belly patch, narrower than body so legs show separation -->
  <ellipse cx="100" cy="150" rx="38" ry="50" fill="url(#bellyGrad)"/>
  <!-- subtle waist hint: a darker crescent where body meets legs -->
  <path d="M64,194 Q100,210 136,194" stroke="#C99A5E" stroke-width="1.2" fill="none" opacity="0.4"/>
  
  <g fill="#D4A775" opacity="0.55">
    <circle cx="70" cy="108" r="3"/>
    <circle cx="78" cy="106" r="2.5"/>
    <circle cx="122" cy="106" r="2.5"/>
    <circle cx="130" cy="108" r="3"/>
    <circle cx="84" cy="138" r="2.5"/>
    <circle cx="116" cy="138" r="2.5"/>
  </g>
  
  <g>
    <!-- back legs (slightly behind, darker) -->
    <rect x="80" y="150" width="12" height="28" rx="6" fill="#C99A5E"/>
    <rect x="108" y="150" width="12" height="28" rx="6" fill="#C99A5E"/>
    <!-- front legs -->
    <rect x="88" y="152" width="12" height="30" rx="6" fill="#E8C79A"/>
    <rect x="100" y="152" width="12" height="30" rx="6" fill="#E8C79A"/>
    <!-- paws -->
    <ellipse cx="94" cy="184" rx="9" ry="6" fill="#C99A5E"/>
    <ellipse cx="106" cy="184" rx="9" ry="6" fill="#C99A5E"/>
    <!-- toe beans -->
    <circle cx="90" cy="184" r="1.6" fill="#A87A3E"/>
    <circle cx="94" cy="186" r="1.6" fill="#A87A3E"/>
    <circle cx="98" cy="184" r="1.6" fill="#A87A3E"/>
    <circle cx="102" cy="184" r="1.6" fill="#A87A3E"/>
    <circle cx="106" cy="186" r="1.6" fill="#A87A3E"/>
    <circle cx="110" cy="184" r="1.6" fill="#A87A3E"/>
  </g>
  
  <g>
    <ellipse cx="62" cy="68" rx="14" ry="26" fill="url(#earGrad)" transform="rotate(-30 62 68)"/>
    <ellipse cx="138" cy="68" rx="14" ry="26" fill="url(#earGrad)" transform="rotate(30 138 68)"/>
    <ellipse cx="62" cy="72" rx="7" ry="15" fill="#B0764A" transform="rotate(-30 62 72)"/>
    <ellipse cx="138" cy="72" rx="7" ry="15" fill="#B0764A" transform="rotate(30 138 72)"/>
  </g>
  
  <g>
    <circle cx="100" cy="88" r="34" fill="url(#headGrad)"/>
    <ellipse cx="88" cy="76" rx="14" ry="9" fill="#F4DDB0" opacity="0.4"/>
    <ellipse cx="100" cy="100" rx="22" ry="17" fill="url(#bellyGrad)"/>
  </g>
  
  <g>
    <ellipse cx="86" cy="82" rx="6.5" ry="7" fill="url(#eyeGrad)"/>
    <ellipse cx="114" cy="82" rx="6.5" ry="7" fill="url(#eyeGrad)"/>
    <circle cx="87.5" cy="80.2" r="1.8" fill="#FFFFFF"/>
    <circle cx="115.5" cy="80.2" r="1.8" fill="#FFFFFF"/>
    <circle cx="84.5" cy="83.5" r="0.8" fill="#fff" opacity="0.6"/>
    <circle cx="112.5" cy="83.5" r="0.8" fill="#fff" opacity="0.6"/>
  </g>
  
  <g>
    <ellipse cx="100" cy="96" rx="7" ry="5" fill="#2A1C14"/>
    <ellipse cx="98.5" cy="94.5" rx="2.2" ry="1.5" fill="#6A4A36" opacity="0.7"/>
    <ellipse cx="101.5" cy="97.5" rx="1" ry="0.6" fill="#fff" opacity="0.4"/>
  </g>
  <circle cx="100" cy="102" r="4" fill="#5A3A26"/>
  
  
  <g opacity="0.75">
    <ellipse cx="70" cy="102" rx="5" ry="3.5" fill="#FFB0B0"/>
    <ellipse cx="130" cy="102" rx="5" ry="3.5" fill="#FFB0B0"/>
  </g>
  <circle cx="100" cy="76" r="3" fill="#fff" opacity="0.9"/>
</g></g></svg>